HIERARCHY
ROOT root
{
	OFFSET	0	13.1	24.9
	CHANNELS 6  Xposition Yposition Zposition Xrotation Yrotation Zrotation
	JOINT spine_1
	{
		OFFSET	0	9.99999	0
		CHANNELS 3  Xrotation Yrotation Zrotation
		JOINT spine_2
		{
			OFFSET	0	112	-10
			CHANNELS 3  Xrotation Yrotation Zrotation
			JOINT spine_3
			{
				OFFSET	0	206.5	19.3
				CHANNELS 3  Xrotation Yrotation Zrotation
				JOINT spine_4
				{
					OFFSET	0	110.4	14.6
					CHANNELS 3  Xrotation Yrotation Zrotation
					JOINT neck_1
					{
						OFFSET	0	71.8	-50.3
						CHANNELS 3  Xrotation Yrotation Zrotation
						JOINT neck_2
						{
							OFFSET	0	86.2	-25.8
							CHANNELS 3  Xrotation Yrotation Zrotation
							JOINT head_ee
							{
								OFFSET	0	179.8	-8.7
								CHANNELS 3  Xrotation Yrotation Zrotation
								End Site
								{
									OFFSET	1	0	0
								}
							}
						}
					}
					JOINT left_clavicle
					{
						OFFSET	-43.2	22.4	-70.8
						CHANNELS 3  Xrotation Yrotation Zrotation
						JOINT left_shoulder
						{
							OFFSET	-93.9	-5.79999	48.7
							CHANNELS 3  Xrotation Yrotation Zrotation
							JOINT left_elbow
							{
								OFFSET	-291.4	-30.8	15.2
								CHANNELS 3  Xrotation Yrotation Zrotation
								JOINT left_lowarm_twist
								{
									OFFSET	-110.7	-3.89999	13.6
									CHANNELS 3  Xrotation Yrotation Zrotation
									JOINT left_hand
									{
										OFFSET	-110.7	-3.89999	13.6
										CHANNELS 3  Xrotation Yrotation Zrotation
										JOINT left_ee
										{
											OFFSET	-80.8	-5.10001	12.1
											CHANNELS 3  Xrotation Yrotation Zrotation
											End Site
											{
												OFFSET	1	0	0
											}
										}
									}
								}
							}
						}
					}
					JOINT right_clavicle
					{
						OFFSET	43.2	22.4	-70.8
						CHANNELS 3  Xrotation Yrotation Zrotation
						JOINT right_shoulder
						{
							OFFSET	93.9	-5.79999	48.7
							CHANNELS 3  Xrotation Yrotation Zrotation
							JOINT right_elbow
							{
								OFFSET	291.4	-30.8	15.2
								CHANNELS 3  Xrotation Yrotation Zrotation
								JOINT right_lowarm_twist
								{
									OFFSET	110.7	-3.89999	13.6
									CHANNELS 3  Xrotation Yrotation Zrotation
									JOINT right_hand
									{
										OFFSET	110.7	-3.89999	13.6
										CHANNELS 3  Xrotation Yrotation Zrotation
										JOINT right_ee
										{
											OFFSET	80.8	-5.10001	12.1
											CHANNELS 3  Xrotation Yrotation Zrotation
											End Site
											{
												OFFSET	1	0	0
											}
										}
									}
								}
							}
						}
					}
				}
			}
		}
	}
	JOINT left_hip
	{
		OFFSET	-82.8	-127.5	0.300001
		CHANNELS 3  Xrotation Yrotation Zrotation
		JOINT left_knee
		{
			OFFSET	-28.2	-396.7	2.2
			CHANNELS 3  Xrotation Yrotation Zrotation
			JOINT left_ankle
			{
				OFFSET	-11.7	-411.3	35.4
				CHANNELS 3  Xrotation Yrotation Zrotation
				JOINT left_toes
				{
					OFFSET	0	-60	-88.6
					CHANNELS 3  Xrotation Yrotation Zrotation
					JOINT left_foot_ee
					{
						OFFSET	-22.5	-16.5	-42.2
						CHANNELS 3  Xrotation Yrotation Zrotation
						End Site
						{
							OFFSET	1	0	0
						}
					}
				}
			}
		}
	}
	JOINT right_hip
	{
		OFFSET	82.8	-127.5	0.300001
		CHANNELS 3  Xrotation Yrotation Zrotation
		JOINT right_knee
		{
			OFFSET	28.2	-396.7	2.2
			CHANNELS 3  Xrotation Yrotation Zrotation
			JOINT right_ankle
			{
				OFFSET	11.7	-411.3	35.4
				CHANNELS 3  Xrotation Yrotation Zrotation
				JOINT right_toes
				{
					OFFSET	0	-60	-88.6
					CHANNELS 3  Xrotation Yrotation Zrotation
					JOINT right_foot_ee
					{
						OFFSET	22.5	-16.5	-42.2
						CHANNELS 3  Xrotation Yrotation Zrotation
						End Site
						{
							OFFSET	1	0	0
						}
					}
				}
			}
		}
	}
}
MOTION
Frames: 11
Frame Time: 0.02
1989.97 701.083 -966.329 3.13791 57.1226 -0.808562 1.53988 0.0672218 -0.868832 1.54029 0.12237 -0.862795 1.53844 0.278934 -0.825584 1.53752 0.145053 -0.859272 -6.72544 2.45059 -0.0545971 -6.72456 4.58525 0.430994 -0.0 0.0 -0.0 10.9552 -5.60495 21.8933 20.3233 17.4182 53.2011 0.964912 -25.5468 0.218757 -2.71278 -0.103447 0.330917 5.33298 -15.6102 30.3662 -0.0 0.0 -0.0 7.48254 -2.52538 -14.5169 -17.2787 2.99201 -60.545 0.634657 17.4528 -0.0974162 17.5575 -0.280996 2.21645 1.71685 13.4142 -5.85728 0.0 0.0 0.0 5.51353 17.6281 -2.95377 -15.2749 0.321983 2.31507 11.5317 -18.4028 -1.81637 0.884418 -0.0 -0.0 -0.0 0.0 -0.0 24.1818 3.50367 8.17442 -59.4633 2.14231 -8.46605 22.0268 -5.02396 2.98043 0.962575 -0.0 -0.0 0.0 0.0 0.0 
1981.48 702.637 -968.264 2.39034 56.2202 -0.113701 1.37797 0.0355922 -0.750908 1.37828 0.0833009 -0.747122 1.3772 0.221278 -0.718449 1.3765 0.105038 -0.744377 -6.36645 2.68301 -1.9123 -6.3497 6.36645 -1.40659 -0.0 0.0 -0.0 11.0177 -9.77989 22.0772 24.0249 17.9591 50.649 0.940052 -24.9698 0.208149 -2.15259 -0.080801 0.262984 5.37876 -19.2132 28.5436 -0.0 0.0 -0.0 7.8902 -2.55433 -15.3133 -13.7548 -2.17713 -60.1929 0.479681 13.3669 -0.0562094 18.5257 -0.276597 2.34003 1.72539 13.6929 -5.79109 0.0 0.0 0.0 4.29729 20.8439 -2.75747 -12.296 0.307877 1.85828 12.9211 -19.6497 -2.04523 -0.254232 0.0 0.0 -0.0 0.0 -0.0 27.4 2.1406 7.52597 -56.5262 1.83679 -8.13174 19.5775 -3.60288 2.68333 -1.92583 0.0 0.0 0.0 0.0 0.0 
1963.46 698.388 -971.188 3.39209 54.5792 -1.87937 1.12871 -0.0189052 -0.403643 1.1288 0.00681779 -0.404028 1.12877 0.0838131 -0.395298 1.12855 0.0203318 -0.403574 -5.84607 3.81484 -1.94374 -5.82105 8.48063 -1.25906 -0.0 0.0 -0.0 10.635 -13.307 21.1683 25.9218 17.1727 48.3339 0.937442 -24.9089 0.207048 -2.02214 -0.0756234 0.247134 5.44098 -20.5578 28.1683 -0.0 0.0 -0.0 7.85034 -1.46987 -15.2609 -15.6371 -0.263365 -60.56 0.416362 11.6542 -0.0424919 19.2924 -0.271633 2.43784 1.81577 12.8731 -6.76706 0.0 0.0 0.0 1.89475 24.6312 -1.41621 -13.6105 0.317029 2.05976 16.5156 -20.5328 -2.59107 1.08824 -0.0 -0.0 -0.0 0.0 -0.0 29.7586 1.45748 8.11948 -54.2378 1.61094 -7.8608 17.0509 -2.64696 2.36667 -3.9937 0.0 0.0 0.0 0.0 0.0 
1950.08 696.907 -977.457 4.43525 54.1571 -3.47436 0.800113 -0.0161057 -0.0521701 0.800115 -0.0127533 -0.0530892 0.800127 -0.00207245 -0.0545602 0.800123 -0.0106632 -0.0535482 -5.66626 4.16218 -2.70935 -5.62327 9.68696 -1.98607 -0.0 0.0 -0.0 10.4542 -15.6741 20.6762 28.182 16.7886 46.4425 0.968203 -25.6228 0.220178 -1.72224 -0.0638571 0.21065 5.45693 -21.3115 27.8102 -0.0 0.0 -0.0 8.06685 -2.69 -15.6558 -15.9521 0.618921 -60.0248 0.371171 10.4187 -0.0338402 20.3004 -0.263115 2.56631 1.80293 12.3404 -6.9163 0.0 0.0 0.0 -0.719479 26.5147 -0.313158 -13.2009 0.314673 1.99695 18.3465 -21.2332 -2.87026 2.40528 -0.0 -0.0 -0.0 0.0 -0.0 32.1283 1.59751 8.22931 -51.6479 1.36869 -7.54372 14.73 -2.00577 2.06685 -5.7596 0.0 0.0 0.0 0.0 0.0 
1931.52 693.412 -990.739 4.27002 53.7929 -4.11297 0.763649 0.0749729 0.436396 0.763754 0.0470523 0.440282 0.764151 -0.0406591 0.440918 0.763881 0.0294852 0.441806 -4.93567 4.71089 -3.00093 -4.87175 10.9121 -2.25479 -0.0 0.0 -0.0 9.94282 -17.1337 19.4598 29.7075 16.3341 45.4453 1.03988 -27.2534 0.252093 -2.14703 -0.0805799 0.262309 5.50805 -22.933 27.1439 -0.0 0.0 -0.0 8.29009 -3.16065 -16.0774 -17.6994 -0.664414 -60.8231 0.365693 10.2682 -0.0328567 20.7481 -0.258607 2.62332 1.84918 13.0643 -6.90837 0.0 0.0 0.0 -2.41133 28.6672 0.0778935 -13.6864 0.317416 2.07139 20.4173 -22.7797 -3.20645 2.74941 -0.0 -0.0 -0.0 0.0 -0.0 32.9879 1.87848 9.3829 -46.9254 0.965066 -6.93913 12.8563 -2.73227 1.81541 -6.22135 0.0 0.0 0.0 0.0 0.0 
1921.01 692.276 -993.633 4.18473 52.8498 -4.77613 0.583419 0.204604 0.691672 0.583671 0.160178 0.703289 0.585763 0.0161637 0.721117 0.58506 0.129845 0.709515 -4.43433 4.96662 -3.5733 -4.34319 11.8114 -2.85197 -0.0 0.0 -0.0 9.90968 -18.0422 19.3324 31.4411 15.8218 44.3437 1.15425 -29.759 0.306689 -1.73787 -0.0644653 0.212553 5.58355 -24.465 26.6837 -0.0 0.0 -0.0 8.28648 -3.4528 -16.0593 -16.4847 -1.6651 -60.9527 0.303224 8.54262 -0.0226469 20.8336 -0.257696 2.63419 1.86125 13.6878 -6.71172 0.0 0.0 0.0 -3.4237 30.8871 0.819007 -14.4586 0.32048 2.18983 22.9274 -23.3756 -3.57026 3.55565 -0.0 -0.0 -0.0 0.0 -0.0 33.6977 1.88561 10.292 -42.1033 0.605975 -6.29019 10.4477 -1.91559 1.49073 -8.5785 0.0 0.0 0.0 0.0 0.0 
1902.04 687.681 -1007.31 3.70154 52.7464 -4.83371 0.788357 0.457041 0.905644 0.788725 0.398489 0.932889 0.795459 0.207364 0.993008 0.794265 0.361582 0.947803 -3.98333 5.07969 -3.73893 -3.87722 12.1434 -3.05498 -0.0 0.0 -0.0 9.55519 -18.471 18.5154 31.6487 15.0743 45.1864 1.2979 -32.7371 0.381233 -1.23074 -0.0449869 0.150728 5.72961 -25.7862 26.8345 -0.0 0.0 -0.0 8.3364 -4.32224 -16.1206 -16.3829 -5.66574 -61.3749 0.196525 5.56052 -0.00954382 21.2859 -0.252603 2.69175 1.88648 14.2111 -6.64776 0.0 0.0 0.0 -5.11356 31.9904 1.20053 -14.7366 0.321193 2.23248 25.0132 -21.0702 -3.76198 4.4387 -0.0 -0.0 -0.0 0.0 -0.0 33.9675 1.69609 9.82772 -37.6931 0.326566 -5.67261 9.68788 -1.82071 1.38633 -8.9822 0.0 0.0 0.0 0.0 0.0 
1884.78 681.964 -1017.59 3.80323 52.8478 -6.0158 0.771252 0.48566 1.33635 0.772157 0.399648 1.36454 0.78213 0.123341 1.41649 0.779496 0.345481 1.37925 -3.63176 5.37099 -3.57271 -3.51944 12.5458 -2.87786 -0.0 0.0 -0.0 9.24457 -19.2131 17.775 32.0591 14.7903 44.7895 1.37385 -34.2359 0.42314 -1.27262 -0.0465747 0.15584 5.90612 -26.6065 27.5162 -0.0 0.0 -0.0 8.25818 -5.17002 -15.9314 -17.6235 -5.81093 -62.1865 0.200223 5.66448 -0.00990551 21.4417 -0.250744 2.71156 1.95615 14.4748 -6.99992 0.0 0.0 0.0 -6.54178 32.6837 2.08122 -16.9298 0.319556 2.56895 26.0946 -21.0448 -3.89744 5.24362 -0.0 -0.0 -0.0 0.0 -0.0 33.9727 1.75747 9.77135 -32.2116 0.0469804 -4.87861 8.72119 -1.72087 1.25245 -9.51196 0.0 0.0 0.0 0.0 0.0 
1872.2 677.946 -1027.02 3.58565 51.6762 -6.79217 0.590898 0.462821 1.74474 0.592523 0.350878 1.77064 0.604123 -0.0100183 1.80503 0.599681 0.275133 1.78398 -2.36995 6.89203 -3.69645 -2.18514 15.3808 -2.95282 -0.0 0.0 -0.0 8.8141 -20.036 16.7611 32.9512 14.3969 43.2438 1.37186 -34.1974 0.422024 -2.24072 -0.0843198 0.273686 5.80894 -24.107 28.5399 -0.0 0.0 -0.0 8.11498 -5.90262 -15.6233 -20.2001 -0.669628 -63.0973 0.284176 8.0132 -0.0199044 21.6592 -0.248059 2.73921 2.0361 15.1946 -7.21403 0.0 0.0 0.0 -7.8429 34.5498 2.85291 -18.2551 0.312325 2.77215 25.8715 -22.5974 -3.92627 5.18482 -0.0 -0.0 -0.0 0.0 -0.0 33.6275 1.95369 9.27382 -26.3197 -0.167344 -4.00018 6.64947 1.08946 0.967972 -9.54152 0.0 0.0 0.0 0.0 0.0 
1858.12 675.66 -1037.31 2.77291 51.3708 -6.73581 0.581421 0.738478 2.03889 0.583529 0.60727 2.08173 0.60678 0.179304 2.16103 0.600637 0.518273 2.10564 -2.46848 6.08429 -3.41356 -2.3216 13.6997 -2.74846 -0.0 0.0 -0.0 8.69711 -20.3178 16.4808 32.958 13.7696 43.6982 1.50706 -36.7409 0.500493 -1.64801 -0.060974 0.20161 6.04713 -26.9656 28.26 -0.0 0.0 -0.0 8.36513 -6.24324 -16.0817 -19.0867 -6.31423 -63.2641 0.213416 6.03505 -0.0112501 21.7785 -0.246541 2.75438 2.03581 15.3568 -7.13824 0.0 0.0 0.0 -8.11191 33.0552 3.42066 -19.3988 0.302307 2.94735 26.7902 -20.3011 -3.95748 5.90049 -0.0 -0.0 -0.0 0.0 -0.0 33.9617 2.13744 8.86313 -23.4676 -0.238373 -3.56829 7.61434 -0.606914 1.10015 -10.0668 0.0 0.0 0.0 0.0 0.0 
1843.31 675.16 -1046.71 2.2283 51.4056 -6.77309 0.514911 0.657311 2.19096 0.517433 0.516598 2.22832 0.538838 0.0583974 2.28664 0.531785 0.418705 2.24876 -2.57258 6.0745 -3.24371 -2.43458 13.5515 -2.55833 -0.0 0.0 -0.0 8.38085 -19.6643 15.8321 33.1388 13.4667 44.0741 1.49474 -36.5157 0.493143 -1.56938 -0.0579333 0.192031 6.15799 -27.27 28.8272 -0.0 0.0 -0.0 8.44428 -6.34807 -16.2264 -19.2747 -6.99434 -63.4627 0.224105 6.33491 -0.0124018 22.0614 -0.242816 2.79032 1.95041 15.1368 -6.66196 0.0 0.0 0.0 -8.43938 33.344 3.76247 -20.2022 0.29318 3.07029 27.3223 -20.226 -4.01975 6.24965 -0.0 -0.0 -0.0 0.0 -0.0 33.8632 2.18223 8.50602 -20.515 -0.289161 -3.11811 7.3961 -0.648346 1.0693 -10.2799 0.0 0.0 0.0 0.0 0.0 
